<svg xmlns="http://www.w3.org/2000/svg" xmlns:xlink="http://www.w3.org/1999/xlink" id="body_1" preserveAspectRatio="xMinYMin meet" viewBox="0 0 793 1121"><defs><clipPath id="1"><path id="" clip-rule="evenodd" transform="matrix(1 0 0 1 0 0)" d="M0 841L0 -0.9200439L0 -0.9200439L595.32 -0.9200439L595.32 -0.9200439L595.32 841L595.32 841L0 841z" /></clipPath><clipPath id="2"><path id="" clip-rule="evenodd" transform="matrix(1 0 0 1 0 0)" d="M89.76 73.71997L505.44 73.71997L505.44 73.71997L505.44 350.6799L505.44 350.6799L89.76 350.6799z" /></clipPath><clipPath id="3"><path id="" clip-rule="evenodd" transform="matrix(1 0 0 1 0 0)" d="M89.76 350.6799L505.44 350.6799L505.44 350.6799L505.44 488.92L505.44 488.92L89.76 488.92z" /></clipPath></defs><g transform="matrix(1.333333 0 0 1.333333 0 0)"><g clip-path="url(#1)"><g clip-path="url(#2)"><g transform="matrix(0.24 0 0 0.24 89.75999 73.71997)"><g transform="matrix(1 0 0 1 0 0)"><image x="0" y="0" xlink:href="img_01.png" width="1732" height="1154" /></g></g></g><g clip-path="url(#3)"><g transform="matrix(0.24 0 0 0.24 89.75999 350.6799)"><g transform="matrix(1 0 0 1 0 0)"><image x="0" y="0" xlink:href="img_02.png" width="1732" height="576" /></g></g></g></g></g></svg>